<svg width="445" height="445" viewBox="0 0 445 445" fill="none" xmlns="http://www.w3.org/2000/svg">
<rect width="445" height="445" fill="#040035"/>
<path d="M58.7059 152.673L49.7662 149.795C47.6449 149.121 46.298 148.397 45.7256 147.623C44.9175 146.646 44.5135 145.552 44.5135 144.34C44.5135 142.926 45.0017 141.713 45.9782 140.703C46.9883 139.659 48.1163 139.138 49.3621 139.138C50.1702 139.138 51.3656 139.407 52.9481 139.946L61.8879 142.825V133.43C61.8879 130.939 62.3593 129.171 63.302 128.127C64.2785 127.05 65.5412 126.511 67.0901 126.511C68.639 126.511 69.8848 127.05 70.8276 128.127C71.7704 129.171 72.2418 130.939 72.2418 133.43V142.825L81.1815 139.946C82.7977 139.407 83.9762 139.138 84.717 139.138C85.9965 139.138 87.1245 139.643 88.101 140.653C89.1111 141.663 89.6162 142.875 89.6162 144.289C89.6162 145.535 89.2626 146.596 88.5555 147.471C87.8821 148.313 86.5016 149.087 84.414 149.795L75.4742 152.673L80.9795 160.3C82.3263 162.152 82.9998 163.617 82.9998 164.694C82.9998 166.142 82.4947 167.371 81.4846 168.381C80.4744 169.391 79.2623 169.896 77.8481 169.896C76.8042 169.896 75.9288 169.677 75.2217 169.24C74.5483 168.802 73.6728 167.842 72.5953 166.361L67.0901 158.785L61.5343 166.361C60.4905 167.842 59.615 168.819 58.9079 169.29C58.2008 169.728 57.3422 169.947 56.3321 169.947C54.9179 169.947 53.6889 169.442 52.6451 168.432C51.6349 167.388 51.1299 166.125 51.1299 164.644C51.1299 163.6 51.8033 162.152 53.1501 160.3L58.7059 152.673ZM69.2619 283.765C70.474 285.145 71.299 286.492 71.7367 287.805C72.1744 289.085 72.3933 291.173 72.3933 294.068V310.534C72.3933 311.914 72.6458 312.891 73.1509 313.463C73.6896 314.069 74.6661 314.423 76.0803 314.524C77.4945 314.658 78.6562 315.214 79.5653 316.19C80.4744 317.167 80.929 318.362 80.929 319.776C80.929 321.258 80.4071 322.504 79.3633 323.514C78.3531 324.524 77.0568 325.029 75.4742 325.029C73.2183 325.029 71.0465 324.423 68.9588 323.211C66.8712 322.032 65.053 320.096 63.5041 317.403C62.5276 315.652 62.0394 313.614 62.0394 311.291V293.058C62.0394 291.61 61.8037 290.617 61.3323 290.078C60.8609 289.539 59.8507 289.186 58.3019 289.018C56.753 288.816 55.5576 288.26 54.7159 287.351C53.9078 286.442 53.5037 285.246 53.5037 283.765C53.5037 282.25 53.9078 281.037 54.7159 280.128C55.5576 279.219 56.753 278.68 58.3019 278.512C59.8844 278.31 60.844 277.99 61.1808 277.553C61.7532 276.879 62.0394 275.835 62.0394 274.421V257.148C62.0394 253.444 63.3862 250.245 66.0799 247.551C68.7736 244.824 71.8882 243.46 75.4237 243.46C77.0399 243.46 78.3531 243.965 79.3633 244.976C80.4071 245.986 80.929 247.231 80.929 248.713C80.929 250.094 80.4744 251.272 79.5653 252.249C78.6562 253.225 77.4777 253.781 76.0298 253.915C74.5819 254.05 73.6728 254.353 73.3024 254.824C72.6963 255.531 72.3933 256.575 72.3933 257.956V274.421C72.3933 276.744 72.1576 278.546 71.6862 279.825C71.2485 281.071 70.4404 282.384 69.2619 283.765ZM375.435 283.765C374.257 282.384 373.432 281.054 372.96 279.775C372.523 278.462 372.304 276.677 372.304 274.421V257.956C372.304 256.575 372.034 255.599 371.496 255.026C370.99 254.42 370.031 254.05 368.617 253.915C367.202 253.781 366.041 253.225 365.132 252.249C364.223 251.272 363.768 250.094 363.768 248.713C363.768 247.231 364.273 245.986 365.283 244.976C366.327 243.965 367.64 243.46 369.223 243.46C371.479 243.46 373.651 244.066 375.738 245.279C377.826 246.457 379.644 248.393 381.193 251.087C382.169 252.838 382.658 254.858 382.658 257.148V274.421C382.658 275.869 382.893 276.879 383.365 277.451C383.836 277.99 384.846 278.344 386.395 278.512C387.944 278.68 389.122 279.219 389.931 280.128C390.772 281.037 391.193 282.25 391.193 283.765C391.193 285.246 390.772 286.442 389.931 287.351C389.122 288.26 387.927 288.816 386.345 289.018C384.796 289.186 383.853 289.489 383.516 289.927C382.944 290.6 382.658 291.644 382.658 293.058V311.291C382.658 315.029 381.311 318.244 378.617 320.938C375.923 323.665 372.809 325.029 369.273 325.029C367.657 325.029 366.327 324.524 365.283 323.514C364.273 322.504 363.768 321.258 363.768 319.776C363.768 318.396 364.223 317.217 365.132 316.241C366.041 315.264 367.219 314.709 368.667 314.574C370.115 314.439 371.024 314.136 371.395 313.665C372.001 312.958 372.304 311.914 372.304 310.534V294.068C372.304 291.173 372.506 289.085 372.91 287.805C373.347 286.526 374.189 285.179 375.435 283.765Z" fill="white"/>
<path d="M118.809 146.007V149.491C120.695 147.875 122.766 146.663 125.022 145.855C127.311 145.047 129.786 144.643 132.446 144.643C138.574 144.643 143.423 146.545 146.992 150.35C149.82 153.381 151.235 157.354 151.235 162.27V181.513C153.423 181.513 155.04 182.001 156.083 182.978C157.127 183.92 157.649 185.166 157.649 186.715C157.649 188.23 157.11 189.476 156.033 190.453C154.989 191.395 153.221 191.867 150.73 191.867H141.386C138.894 191.867 137.11 191.395 136.032 190.453C134.988 189.476 134.466 188.213 134.466 186.665C134.466 185.149 134.988 183.92 136.032 182.978C137.076 182.001 138.692 181.513 140.881 181.513V161.967C140.881 159.711 140.275 158.061 139.062 157.017C137.48 155.67 135.106 154.997 131.941 154.997C129.55 154.997 127.446 155.468 125.628 156.411C123.843 157.32 121.57 159.273 118.809 162.27V181.513C121.469 181.513 123.186 181.765 123.961 182.271C125.611 183.281 126.436 184.762 126.436 186.715C126.436 188.23 125.897 189.476 124.82 190.453C123.776 191.395 122.008 191.867 119.516 191.867H107.748C105.257 191.867 103.472 191.395 102.394 190.453C101.351 189.476 100.829 188.213 100.829 186.665C100.829 184.779 101.637 183.314 103.253 182.271C104.061 181.765 105.795 181.513 108.455 181.513V156.36C106.267 156.36 104.65 155.872 103.607 154.896C102.563 153.919 102.041 152.673 102.041 151.158C102.041 149.643 102.563 148.414 103.607 147.471C104.684 146.495 106.469 146.007 108.96 146.007H118.809ZM313.109 156.36V177.119C313.109 179.341 313.564 180.806 314.473 181.513C315.887 182.624 318.413 183.18 322.049 183.18C327.336 183.18 332.218 182.052 336.696 179.796C338.413 178.92 339.76 178.482 340.737 178.482C342.084 178.482 343.245 178.988 344.222 179.998C345.232 181.008 345.737 182.237 345.737 183.685C345.737 185.032 345.198 186.193 344.121 187.17C342.471 188.752 339.205 190.217 334.322 191.564C329.474 192.877 325.383 193.534 322.049 193.534C315.618 193.534 310.786 192.153 307.554 189.392C304.355 186.597 302.756 183.18 302.756 179.139V156.36H299.018C296.526 156.36 294.742 155.889 293.664 154.946C292.621 153.97 292.099 152.707 292.099 151.158C292.099 149.643 292.621 148.414 293.664 147.471C294.742 146.495 296.526 146.007 299.018 146.007H302.756V136.663C302.756 134.171 303.227 132.403 304.17 131.359C305.146 130.282 306.409 129.743 307.958 129.743C309.473 129.743 310.702 130.282 311.645 131.359C312.621 132.403 313.109 134.171 313.109 136.663V146.007H332.252C334.743 146.007 336.511 146.495 337.555 147.471C338.632 148.414 339.171 149.66 339.171 151.209C339.171 152.724 338.632 153.97 337.555 154.946C336.511 155.889 334.743 156.36 332.252 156.36H313.109ZM372.001 191.513L354.071 156.36C352.387 156.158 351.108 155.586 350.232 154.643C349.357 153.7 348.919 152.556 348.919 151.209C348.919 149.66 349.441 148.414 350.485 147.471C351.562 146.495 353.347 146.007 355.838 146.007H365.283C367.775 146.007 369.543 146.495 370.586 147.471C371.664 148.414 372.203 149.66 372.203 151.209C372.203 152.724 371.664 153.97 370.586 154.946C369.543 155.889 367.876 156.36 365.586 156.36L377.809 180.149L389.931 156.36C387.708 156.36 386.058 155.889 384.981 154.946C383.937 153.97 383.415 152.707 383.415 151.158C383.415 149.643 383.937 148.414 384.981 147.471C386.058 146.495 387.843 146.007 390.335 146.007H400.082C402.54 146.007 404.291 146.495 405.335 147.471C406.413 148.414 406.951 149.66 406.951 151.209C406.951 152.589 406.497 153.768 405.588 154.744C404.679 155.687 403.332 156.226 401.547 156.36L377.809 203.13C380.402 203.13 382.102 203.382 382.91 203.887C384.526 204.931 385.334 206.413 385.334 208.332C385.334 209.847 384.796 211.076 383.718 212.019C382.674 212.996 380.907 213.484 378.415 213.484H355.838C353.347 213.484 351.562 212.996 350.485 212.019C349.441 211.076 348.919 209.847 348.919 208.332C348.919 206.783 349.441 205.521 350.485 204.544C351.562 203.601 353.347 203.13 355.838 203.13H366.142L372.001 191.513ZM145.426 264.875C146.672 263.697 147.952 263.108 149.265 263.108C150.746 263.108 151.959 263.646 152.901 264.724C153.878 265.768 154.366 267.518 154.366 269.976V276.643C154.366 279.135 153.878 280.903 152.901 281.947C151.959 282.99 150.713 283.512 149.164 283.512C147.75 283.512 146.554 283.108 145.578 282.3C144.871 281.694 144.315 280.465 143.911 278.613C143.507 276.728 142.531 275.33 140.982 274.421C138.254 272.805 134.769 271.997 130.527 271.997C125.644 271.997 121.722 273.428 118.759 276.29C115.829 279.152 114.365 282.772 114.365 287.149C114.365 291.189 115.779 294.388 118.607 296.745C121.436 299.068 126.133 300.23 132.699 300.23C137.009 300.23 140.527 299.792 143.255 298.917C144.871 298.378 146.403 297.469 147.851 296.19C149.299 294.876 150.612 294.22 151.79 294.22C153.204 294.22 154.417 294.742 155.427 295.786C156.471 296.829 156.992 298.058 156.992 299.473C156.992 301.762 155.427 303.934 152.295 305.988C147.649 309.052 140.847 310.584 131.891 310.584C123.843 310.584 117.58 308.917 113.102 305.584C107.041 301.106 104.011 294.977 104.011 287.199C104.011 279.825 106.469 273.731 111.385 268.916C116.301 264.067 122.715 261.643 130.628 261.643C133.49 261.643 136.15 261.912 138.608 262.451C141.066 262.99 143.339 263.798 145.426 264.875ZM218.308 286.795C218.308 290.769 217.197 294.624 214.974 298.361C212.786 302.065 209.503 305.028 205.126 307.251C200.782 309.439 196.236 310.534 191.489 310.534C186.775 310.534 182.263 309.456 177.953 307.301C173.643 305.112 170.36 302.149 168.104 298.412C165.848 294.674 164.72 290.769 164.72 286.694C164.72 282.553 165.865 278.495 168.155 274.522C170.444 270.515 173.727 267.367 178.003 265.077C182.313 262.788 186.808 261.643 191.489 261.643C196.203 261.643 200.731 262.821 205.075 265.178C209.452 267.502 212.752 270.65 214.974 274.623C217.197 278.563 218.308 282.62 218.308 286.795ZM207.954 286.846C207.954 283.512 206.759 280.448 204.368 277.654C201.102 273.882 196.809 271.997 191.489 271.997C186.808 271.997 182.903 273.495 179.771 276.492C176.64 279.489 175.074 282.957 175.074 286.896C175.074 290.129 176.657 293.159 179.822 295.988C182.987 298.782 186.876 300.18 191.489 300.18C196.135 300.18 200.041 298.782 203.206 295.988C206.371 293.159 207.954 290.112 207.954 286.846ZM277.3 243.359V298.513H279.068C281.526 298.513 283.294 299.001 284.371 299.978C285.449 300.92 285.987 302.166 285.987 303.715C285.987 305.23 285.449 306.476 284.371 307.453C283.327 308.395 281.559 308.867 279.068 308.867H266.946V306.341C264.589 307.722 262.114 308.766 259.522 309.473C256.963 310.18 254.303 310.534 251.542 310.534C243.763 310.534 237.501 308.294 232.753 303.816C228.005 299.304 225.631 293.698 225.631 286.997C225.631 279.994 228.123 274.017 233.106 269.067C238.09 264.118 244.167 261.643 251.339 261.643C254.033 261.643 256.676 262.064 259.269 262.905C261.862 263.714 264.421 264.943 266.946 266.592V253.713H265.178C262.687 253.713 260.902 253.242 259.825 252.299C258.781 251.323 258.259 250.077 258.259 248.562C258.259 247.013 258.781 245.767 259.825 244.824C260.902 243.848 262.687 243.359 265.178 243.359H277.3ZM266.946 287.3C266.946 283.024 265.448 279.404 262.451 276.441C259.454 273.478 255.784 271.997 251.44 271.997C247.131 271.997 243.477 273.478 240.48 276.441C237.484 279.404 235.985 282.974 235.985 287.149C235.985 290.954 237.332 294.085 240.026 296.543C242.72 298.967 246.524 300.18 251.44 300.18C256.323 300.18 260.128 298.967 262.855 296.543C265.582 294.085 266.946 291.004 266.946 287.3ZM341.646 291.189H299.17C300.247 293.883 302.149 296.055 304.877 297.705C307.638 299.355 311.359 300.18 316.039 300.18C319.877 300.18 324.979 299.355 331.343 297.705C333.969 297.031 335.787 296.695 336.797 296.695C338.178 296.695 339.339 297.183 340.282 298.159C341.225 299.136 341.696 300.365 341.696 301.846C341.696 303.193 341.191 304.338 340.181 305.281C338.834 306.527 335.551 307.722 330.332 308.867C325.113 309.978 320.096 310.534 315.281 310.534C306.998 310.534 300.365 308.193 295.382 303.513C290.432 298.833 287.957 293.075 287.957 286.24C287.957 278.967 290.634 273.057 295.988 268.512C301.375 263.932 307.571 261.643 314.574 261.643C318.783 261.643 322.638 262.384 326.14 263.865C329.676 265.347 332.302 266.946 334.019 268.663C336.444 271.155 338.447 274.236 340.03 277.906C341.107 280.465 341.646 283.428 341.646 286.795V291.189ZM330.181 280.835C328.598 277.872 326.528 275.667 323.968 274.219C321.409 272.738 318.362 271.997 314.827 271.997C311.325 271.997 308.294 272.738 305.735 274.219C303.176 275.667 301.089 277.872 299.473 280.835H330.181Z" fill="#109BFF"/>
<path d="M195.125 126.359V137.319H182.802V126.359H195.125ZM196.539 146.007V181.513H208.964C211.456 181.513 213.224 182.001 214.267 182.978C215.345 183.92 215.884 185.166 215.884 186.715C215.884 188.23 215.345 189.476 214.267 190.453C213.224 191.395 211.456 191.867 208.964 191.867H173.761C171.269 191.867 169.485 191.395 168.407 190.453C167.363 189.476 166.841 188.213 166.841 186.665C166.841 185.149 167.363 183.92 168.407 182.978C169.485 182.001 171.269 181.513 173.761 181.513H186.185V156.36H177.852C175.394 156.36 173.626 155.889 172.549 154.946C171.471 153.97 170.932 152.707 170.932 151.158C170.932 149.643 171.454 148.414 172.498 147.471C173.576 146.495 175.36 146.007 177.852 146.007H196.539ZM253.461 156.36V181.513H268.209C270.7 181.513 272.468 182.001 273.512 182.978C274.59 183.92 275.128 185.166 275.128 186.715C275.128 188.23 274.59 189.476 273.512 190.453C272.468 191.395 270.7 191.867 268.209 191.867H236.945C234.453 191.867 232.669 191.395 231.591 190.453C230.547 189.476 230.026 188.213 230.026 186.665C230.026 185.149 230.547 183.92 231.591 182.978C232.669 182.001 234.453 181.513 236.945 181.513H243.107V156.36H238.157C235.665 156.36 233.881 155.889 232.803 154.946C231.76 153.97 231.238 152.707 231.238 151.158C231.238 149.643 231.76 148.414 232.803 147.471C233.881 146.495 235.665 146.007 238.157 146.007H243.107V142.067C243.107 137.555 244.79 133.817 248.158 130.854C251.558 127.858 256.474 126.359 262.906 126.359C265.768 126.359 269.067 126.629 272.805 127.167C276.576 127.672 278.984 128.396 280.027 129.339C281.105 130.282 281.644 131.494 281.644 132.976C281.644 134.558 281.172 135.855 280.229 136.865C279.287 137.841 278.125 138.329 276.744 138.329C276.105 138.329 275.145 138.212 273.866 137.976C269.589 137.134 265.801 136.713 262.502 136.713C259.067 136.713 256.693 137.235 255.38 138.279C254.101 139.289 253.461 140.552 253.461 142.067V146.007H269.421C271.913 146.007 273.68 146.495 274.724 147.471C275.802 148.414 276.34 149.66 276.34 151.209C276.34 152.724 275.802 153.97 274.724 154.946C273.68 155.889 271.913 156.36 269.421 156.36H253.461Z" fill="#FF005C"/>
</svg>
